<svg xmlns="http://www.w3.org/2000/svg" width="100" height="100" viewBox="0 0 100 100">
  <g id="Group_317" data-name="Group 317" transform="translate(-634 -778)">
    <circle id="Ellipse_3" data-name="Ellipse 3" cx="50" cy="50" r="50" transform="translate(634 778)" fill="#ceffe6"/>
    <circle id="Ellipse_96" data-name="Ellipse 96" cx="6.334" cy="6.334" r="6.334" transform="translate(688.738 828)" fill="#81ecb7"/>
    <path id="Path_297" data-name="Path 297" d="M28.682,24.336l-2-3.4a7.866,7.866,0,0,1-5.766,2.529c-.152,0-.292-.036-.442-.045l2.47,4.211a1.186,1.186,0,0,0,1.024.584h.038a1.188,1.188,0,0,0,1.021-.653l.781-1.551,1.774.112a1.108,1.108,0,0,0,1.085-.563,1.184,1.184,0,0,0,.012-1.223Z" transform="translate(674.154 818.786)" fill="#81ecb7"/>
    <path id="Path_298" data-name="Path 298" d="M25.24,23.455a7.868,7.868,0,0,1-5.752-2.513L17.5,24.326a1.187,1.187,0,0,0,1.1,1.786L20.364,26l.774,1.549a1.186,1.186,0,0,0,1.021.655h.04a1.192,1.192,0,0,0,1.024-.584l2.482-4.213c-.154.009-.3.048-.465.048Z" transform="translate(669.833 818.795)" fill="#81ecb7"/>
    <g id="Group_315" data-name="Group 315" transform="translate(665 809)">
      <path id="Path_299" data-name="Path 299" d="M21.314,19.334H11.75a1.584,1.584,0,0,1,0-3.168h9.564a1.584,1.584,0,0,1,0,3.168Z" transform="translate(-5.022 3.228)" fill="#35bb78"/>
      <path id="Path_300" data-name="Path 300" d="M19.73,22H11.75a1.584,1.584,0,0,1,0-3.168h7.98a1.584,1.584,0,0,1,0,3.168Z" transform="translate(-5.022 6.895)" fill="#35bb78"/>
      <path id="Path_301" data-name="Path 301" d="M26.366,46H12.75A4.755,4.755,0,0,1,8,41.25V12.75A4.755,4.755,0,0,1,12.75,8H34.916a4.755,4.755,0,0,1,4.75,4.75V24.024a1.583,1.583,0,1,1-3.166,0V12.75a1.585,1.585,0,0,0-1.584-1.584H12.75a1.585,1.585,0,0,0-1.584,1.584v28.5a1.585,1.585,0,0,0,1.584,1.584H26.366a1.583,1.583,0,1,1,0,3.166Z" transform="translate(-8 -8)" fill="#35bb78"/>
      <path id="Path_302" data-name="Path 302" d="M18.48,15.938a1.188,1.188,0,0,0,0-2.375H15.708v-.791a.4.4,0,0,1,.4-.4H18.48a1.188,1.188,0,0,0,0-2.375H16.1a2.775,2.775,0,0,0-2.772,2.772v3.959A2.775,2.775,0,0,0,16.1,19.5H18.48a1.189,1.189,0,0,0,0-2.377H16.1a.4.4,0,0,1-.4-.4v-.791Z" transform="translate(-0.667 -5.25)" fill="#35bb78"/>
      <path id="Path_303" data-name="Path 303" d="M20.229,19.5h-.791a2.775,2.775,0,0,1-2.772-2.772V12.771A2.775,2.775,0,0,1,19.439,10h.791A2.775,2.775,0,0,1,23,12.771V16.73A2.776,2.776,0,0,1,20.229,19.5Zm-.793-7.125a.4.4,0,0,0-.4.4v3.959a.4.4,0,0,0,.4.4h.791a.4.4,0,0,0,.4-.4V12.773a.4.4,0,0,0-.4-.4Z" transform="translate(3.917 -5.251)" fill="#35bb78"/>
      <path id="Path_304" data-name="Path 304" d="M13.5,19.5H11.188a1.188,1.188,0,0,1,0-2.375H13.5a.613.613,0,0,0,0-1.187h-.66a2.972,2.972,0,0,1,0-5.937h2.309a1.188,1.188,0,0,1,0,2.375H12.836a.613.613,0,0,0,0,1.188h.66a2.972,2.972,0,0,1,0,5.938Z" transform="translate(-5.25 -5.25)" fill="#35bb78"/>
    </g>
  </g>
</svg>
