<svg xmlns="http://www.w3.org/2000/svg" width="100" height="100" viewBox="0 0 100 100">
  <g id="Group_316" data-name="Group 316" transform="translate(-309 -778)">
    <circle id="Ellipse_2" data-name="Ellipse 2" cx="50" cy="50" r="50" transform="translate(309 778)" fill="#fff5df"/>
    <path id="Path_292" data-name="Path 292" d="M41.25,27H28.584v-1.89a7.561,7.561,0,0,0,3.85-3.9,8.086,8.086,0,0,0,5.65-8.063v-.793A1.188,1.188,0,0,0,36.9,11.166H33.334v-.394A2.775,2.775,0,0,0,30.562,8H23.437a2.775,2.775,0,0,0-2.772,2.772v.4H17.1a1.188,1.188,0,0,0-1.187,1.188v.791a8.084,8.084,0,0,0,5.65,8.063,7.561,7.561,0,0,0,3.85,3.9V27H12.75A4.755,4.755,0,0,0,8,31.75v9.5A4.755,4.755,0,0,0,12.75,46h28.5A4.755,4.755,0,0,0,46,41.25v-9.5A4.755,4.755,0,0,0,41.25,27ZM35.7,13.541A5.6,5.6,0,0,1,33.306,18.1c.017-.2.028-.406.028-.606V13.538H35.7Zm-17.4,0h2.366V17.5c0,.2.012.4.028.606A5.6,5.6,0,0,1,18.3,13.541ZM42.834,41.25a1.585,1.585,0,0,1-1.584,1.584H12.75a1.585,1.585,0,0,1-1.584-1.584v-9.5a1.585,1.585,0,0,1,1.584-1.584h28.5a1.585,1.585,0,0,1,1.584,1.584Z" transform="translate(332 801)" fill="#fac14d"/>
    <g id="Group_314" data-name="Group 314" transform="translate(346.334 832.75)">
      <path id="Path_293" data-name="Path 293" d="M17.438,20.375h2.375a1.188,1.188,0,0,0,0-2.375H17.438a2.775,2.775,0,0,0-2.772,2.772v3.959A2.775,2.775,0,0,0,17.438,27.5h2.375a1.188,1.188,0,0,0,0-2.375H17.438a.4.4,0,0,1-.4-.4v-.793h2.772a1.188,1.188,0,0,0,0-2.375H17.041v-.791A.4.4,0,0,1,17.438,20.375Z" transform="translate(-5.168 -18)" fill="#ffd77a"/>
      <path id="Path_294" data-name="Path 294" d="M22.229,18h-.791a2.775,2.775,0,0,0-2.772,2.772v3.959A2.775,2.775,0,0,0,21.439,27.5h.791A2.775,2.775,0,0,0,25,24.731V20.772A2.776,2.776,0,0,0,22.229,18Zm.394,6.728a.4.4,0,0,1-.4.4h-.791a.4.4,0,0,1-.4-.4V20.769a.4.4,0,0,1,.4-.4h.791a.4.4,0,0,1,.4.4Z" transform="translate(0.333 -18)" fill="#ffd77a"/>
      <path id="Path_295" data-name="Path 295" d="M13.5,20.375h2.309a1.188,1.188,0,0,0,0-2.375H13.5a2.972,2.972,0,0,0,0,5.938h.66a.613.613,0,0,1,0,1.188H11.855a1.187,1.187,0,1,0,0,2.375h2.309a2.972,2.972,0,0,0,0-5.937H13.5a.613.613,0,0,1,0-1.187Z" transform="translate(-10.667 -18)" fill="#ffd77a"/>
    </g>
  </g>
</svg>
