<svg xmlns="http://www.w3.org/2000/svg" width="60" height="60.731" viewBox="0 0 60 60.731">
  <g id="Group_2234" data-name="Group 2234" transform="translate(-371.553 -856.74)">
    <path id="Path_5268" data-name="Path 5268" d="M4696.29,893.06c-6.634-1.809-9.844,2.956-13.82,11.249s-4.523,14.55,2.412,22.315,16.736,9.348,25.331,8.745,13.872-7.313,13.57-13.268-10.159-2.865-14.776-10.554S4702.924,894.869,4696.29,893.06Z" transform="translate(-4308 -18.014)" fill="#d7d5e9" opacity="0.8"/>
    <path id="Path_5269" data-name="Path 5269" d="M4801.2,864.079c2.337-6.483,6.71-4.071,12.967-3.015s8.293,1.508,12.062,7.237,8.368,11.007,3.016,15.681-17.415,7.991-24.426,3.016S4798.86,870.563,4801.2,864.079Z" transform="translate(-4400.123 -3)" fill="#9e8ff9" opacity="0.8"/>
  </g>
</svg>